<svg width="10" height="8" viewBox="0 0 10 8" fill="none" xmlns="http://www.w3.org/2000/svg">
<path fill-rule="evenodd" clip-rule="evenodd" d="M1 0C1.55228 0 2 0.447715 2 1V3C2 3.79565 2.31607 4.55871 2.87868 5.12132C3.44129 5.68393 4.20435 6 5 6C5.79565 6 6.55871 5.68393 7.12132 5.12132C7.68393 4.55871 8 3.79565 8 3V1C8 0.447715 8.44772 0 9 0C9.55229 0 10 0.447715 10 1V3C10 4.32608 9.47322 5.59785 8.53553 6.53553C7.59785 7.47321 6.32608 8 5 8C3.67392 8 2.40215 7.47321 1.46447 6.53553C0.526784 5.59785 0 4.32608 0 3V1C0 0.447715 0.447715 0 1 0Z" fill="#A259FF"/>
</svg>
